<svg width="219.83" height="22.756" viewBox="0 0 219.83 22.756" xmlns="http://www.w3.org/2000/svg"><g id="svgGroup" stroke-linecap="round" fill-rule="evenodd" font-size="9pt" stroke="#000" stroke-width="0.25mm" fill="#000" style="stroke:#000;stroke-width:0.25mm;fill:#000"><path d="M 0.001 21.931 L 0.001 0.706 Q 0.001 0.031 1.101 0.031 A 2.681 2.681 0 0 1 1.474 0.055 Q 2.201 0.158 2.201 0.706 L 2.201 9.581 L 11.876 0.256 Q 12.112 0 12.341 0 A 0.419 0.419 0 0 1 12.463 0.019 A 0.951 0.951 0 0 1 12.684 0.121 Q 12.872 0.237 13.076 0.456 Q 13.35 0.77 13.417 0.999 A 0.515 0.515 0 0 1 13.438 1.119 A 0.58 0.58 0 0 1 13.439 1.146 Q 13.439 1.394 13.226 1.631 L 3.826 10.756 A 133.934 133.934 0 0 0 5.928 13.343 A 109.451 109.451 0 0 0 7.138 14.769 A 59.927 59.927 0 0 0 9.303 17.147 A 50.743 50.743 0 0 0 10.276 18.131 Q 11.826 19.656 13.401 20.931 A 0.849 0.849 0 0 1 13.701 21.337 A 1.177 1.177 0 0 1 13.751 21.519 A 0.563 0.563 0 0 1 13.761 21.626 Q 13.761 21.971 13.351 22.381 A 1.394 1.394 0 0 1 13.114 22.56 Q 12.9 22.686 12.676 22.694 Q 12.378 22.704 12.063 22.489 A 1.827 1.827 0 0 1 11.951 22.406 A 43.343 43.343 0 0 1 9.317 20.071 A 46.738 46.738 0 0 1 9.276 20.031 Q 7.951 18.756 6.713 17.394 Q 5.476 16.031 4.338 14.619 Q 3.201 13.206 2.201 11.806 L 2.201 21.931 A 0.703 0.703 0 0 1 2.167 22.156 A 0.561 0.561 0 0 1 1.926 22.456 A 0.925 0.925 0 0 1 1.698 22.557 Q 1.457 22.631 1.101 22.631 A 2.786 2.786 0 0 1 0.813 22.617 Q 0.51 22.586 0.32 22.482 A 0.757 0.757 0 0 1 0.276 22.456 A 0.563 0.563 0 0 1 0.009 22.051 A 0.783 0.783 0 0 1 0.001 21.931 Z" id="0" vector-effect="non-scaling-stroke"/><path d="M 16.451 20.081 L 16.451 0.681 A 0.634 0.634 0 0 1 16.484 0.468 Q 16.545 0.298 16.713 0.194 A 0.889 0.889 0 0 1 16.925 0.101 Q 17.156 0.031 17.501 0.031 A 2.998 2.998 0 0 1 17.788 0.044 Q 18.128 0.077 18.326 0.194 Q 18.601 0.356 18.601 0.681 L 18.601 19.806 Q 18.601 20.266 18.741 20.499 A 0.55 0.55 0 0 0 18.801 20.581 A 0.659 0.659 0 0 0 19.276 20.805 A 0.898 0.898 0 0 0 19.326 20.806 A 1.194 1.194 0 0 0 19.516 20.792 Q 19.624 20.774 19.714 20.736 A 0.701 0.701 0 0 0 19.751 20.719 Q 19.915 20.637 20.079 20.478 A 1.934 1.934 0 0 0 20.101 20.456 A 7.509 7.509 0 0 0 20.363 20.179 A 8.356 8.356 0 0 0 20.451 20.081 A 0.536 0.536 0 0 1 20.571 19.989 Q 20.699 19.918 20.851 19.944 Q 21.076 19.981 21.326 20.206 Q 21.501 20.381 21.588 20.619 A 0.598 0.598 0 0 1 21.617 20.727 Q 21.646 20.897 21.556 21.047 A 0.549 0.549 0 0 1 21.551 21.056 A 2.983 2.983 0 0 1 20.961 21.844 A 2.819 2.819 0 0 1 20.851 21.944 Q 20.426 22.306 19.926 22.506 Q 19.426 22.706 18.901 22.706 Q 18.078 22.706 17.542 22.425 A 1.714 1.714 0 0 1 17.038 22.031 A 2.178 2.178 0 0 1 16.616 21.266 Q 16.451 20.758 16.451 20.081 Z" id="1" vector-effect="non-scaling-stroke"/><path d="M 31.926 10.206 L 31.926 10.106 A 0.703 0.703 0 0 1 31.96 9.882 A 0.561 0.561 0 0 1 32.201 9.581 A 0.925 0.925 0 0 1 32.428 9.48 Q 32.669 9.406 33.026 9.406 A 2.967 2.967 0 0 1 33.312 9.419 Q 33.599 9.447 33.779 9.536 A 0.717 0.717 0 0 1 33.838 9.569 A 0.531 0.531 0 0 1 34.091 9.956 A 0.807 0.807 0 0 1 34.101 10.081 L 34.101 19.806 Q 34.101 20.156 34.188 20.381 A 0.828 0.828 0 0 0 34.264 20.532 Q 34.325 20.626 34.406 20.685 A 0.501 0.501 0 0 0 34.438 20.706 Q 34.601 20.806 34.801 20.806 Q 34.991 20.806 35.131 20.762 A 0.677 0.677 0 0 0 35.213 20.731 Q 35.362 20.662 35.512 20.519 A 1.652 1.652 0 0 0 35.538 20.494 Q 35.65 20.382 35.791 20.229 A 16.07 16.07 0 0 0 35.926 20.081 Q 36.076 19.906 36.301 19.944 Q 36.526 19.981 36.776 20.156 A 1.219 1.219 0 0 1 36.942 20.338 Q 37.04 20.47 37.08 20.614 A 0.764 0.764 0 0 1 37.088 20.644 A 0.755 0.755 0 0 1 37.108 20.778 Q 37.109 20.796 37.109 20.814 A 0.643 0.643 0 0 1 37.026 21.131 Q 36.751 21.606 36.338 21.956 Q 35.926 22.306 35.426 22.506 Q 34.926 22.706 34.376 22.706 A 4.054 4.054 0 0 1 33.903 22.68 Q 33.615 22.646 33.376 22.569 Q 32.951 22.431 32.638 22.144 Q 32.326 21.856 32.176 21.444 Q 32.026 21.031 31.951 20.506 Q 31.951 20.41 31.943 20.285 A 6.235 6.235 0 0 0 31.938 20.206 Q 31.926 20.031 31.926 19.831 A 7.75 7.75 0 0 1 31.458 20.63 Q 31.101 21.16 30.701 21.531 A 4.855 4.855 0 0 1 29.988 22.083 A 3.827 3.827 0 0 1 29.288 22.431 Q 28.551 22.706 27.801 22.706 A 4.592 4.592 0 0 1 26.297 22.466 A 4.138 4.138 0 0 1 25.363 22.006 A 4.178 4.178 0 0 1 24.138 20.743 A 5.58 5.58 0 0 1 23.713 19.931 A 6.65 6.65 0 0 1 23.317 18.62 Q 23.187 17.971 23.145 17.216 A 13.357 13.357 0 0 1 23.126 16.481 A 12.506 12.506 0 0 1 23.214 14.966 A 10.243 10.243 0 0 1 23.363 14.069 A 8.128 8.128 0 0 1 23.747 12.781 A 6.784 6.784 0 0 1 24.076 12.069 A 5.817 5.817 0 0 1 24.785 11.022 A 5.053 5.053 0 0 1 25.226 10.569 Q 25.901 9.956 26.776 9.631 A 5.172 5.172 0 0 1 28.01 9.344 A 6.482 6.482 0 0 1 28.726 9.306 A 5.773 5.773 0 0 1 30.145 9.488 A 6.533 6.533 0 0 1 30.351 9.544 Q 31.176 9.781 31.926 10.206 Z M 31.926 16.856 L 31.926 12.056 Q 31.151 11.606 30.438 11.444 Q 29.726 11.281 28.976 11.281 Q 28.301 11.281 27.738 11.481 Q 27.176 11.681 26.726 12.094 A 3.399 3.399 0 0 0 26.15 12.789 A 4.138 4.138 0 0 0 25.963 13.119 A 4.857 4.857 0 0 0 25.663 13.86 A 6.452 6.452 0 0 0 25.488 14.544 A 7.951 7.951 0 0 0 25.369 15.386 Q 25.331 15.805 25.326 16.272 A 13.28 13.28 0 0 0 25.326 16.406 Q 25.326 17.706 25.626 18.681 Q 25.912 19.611 26.493 20.131 A 2.417 2.417 0 0 0 26.551 20.181 A 2.212 2.212 0 0 0 27.644 20.669 A 3.021 3.021 0 0 0 28.126 20.706 A 2.788 2.788 0 0 0 29.557 20.307 A 3.307 3.307 0 0 0 29.601 20.281 Q 30.246 19.889 30.806 19.126 A 6.431 6.431 0 0 0 30.901 18.994 A 6.912 6.912 0 0 0 31.441 18.061 Q 31.671 17.586 31.867 17.029 A 11.876 11.876 0 0 0 31.926 16.856 Z" id="2" vector-effect="non-scaling-stroke"/><path d="M 39.451 18.256 L 39.451 10.056 A 0.634 0.634 0 0 1 39.484 9.843 Q 39.545 9.673 39.713 9.569 A 0.889 0.889 0 0 1 39.925 9.476 Q 40.156 9.406 40.501 9.406 A 2.998 2.998 0 0 1 40.788 9.419 Q 41.128 9.452 41.326 9.569 Q 41.601 9.731 41.601 10.056 L 41.601 18.206 Q 41.601 18.882 41.759 19.384 A 2.51 2.51 0 0 0 41.851 19.631 A 1.922 1.922 0 0 0 42.187 20.161 A 1.696 1.696 0 0 0 42.601 20.494 A 2.005 2.005 0 0 0 43.13 20.7 Q 43.37 20.758 43.65 20.775 A 3.859 3.859 0 0 0 43.876 20.781 Q 44.626 20.781 45.263 20.456 A 3.75 3.75 0 0 0 46.242 19.729 A 4.399 4.399 0 0 0 46.413 19.544 Q 46.926 18.956 47.313 18.131 Q 47.701 17.306 47.951 16.356 L 47.951 10.056 A 0.634 0.634 0 0 1 47.984 9.843 Q 48.045 9.673 48.213 9.569 A 0.867 0.867 0 0 1 48.416 9.479 Q 48.656 9.406 49.026 9.406 A 2.731 2.731 0 0 1 49.315 9.42 Q 49.613 9.452 49.801 9.555 A 0.785 0.785 0 0 1 49.826 9.569 Q 50.101 9.731 50.101 10.056 L 50.101 19.806 Q 50.101 20.181 50.188 20.419 A 0.804 0.804 0 0 0 50.264 20.574 Q 50.34 20.693 50.451 20.756 A 0.761 0.761 0 0 0 50.755 20.851 A 0.944 0.944 0 0 0 50.851 20.856 A 0.809 0.809 0 0 0 51.22 20.765 A 0.949 0.949 0 0 0 51.238 20.756 Q 51.426 20.656 51.613 20.469 Q 51.801 20.281 51.976 20.081 A 0.516 0.516 0 0 1 52.11 19.983 Q 52.236 19.92 52.388 19.944 A 0.624 0.624 0 0 1 52.614 20.029 Q 52.734 20.102 52.851 20.231 Q 53.026 20.406 53.101 20.644 A 0.526 0.526 0 0 1 53.125 20.779 Q 53.131 20.899 53.076 21.017 A 0.669 0.669 0 0 1 53.026 21.106 Q 52.751 21.581 52.351 21.944 Q 51.951 22.306 51.463 22.519 Q 50.976 22.731 50.426 22.731 Q 49.826 22.731 49.388 22.569 A 2.011 2.011 0 0 1 48.841 22.266 A 1.839 1.839 0 0 1 48.651 22.094 A 2.114 2.114 0 0 1 48.231 21.451 A 2.459 2.459 0 0 1 48.188 21.344 A 3.019 3.019 0 0 1 48.028 20.685 A 3.653 3.653 0 0 1 48.001 20.381 L 47.976 19.681 A 6.966 6.966 0 0 1 47.421 20.61 A 5.96 5.96 0 0 1 47.113 21.006 Q 46.626 21.581 46.063 21.956 Q 45.501 22.331 44.876 22.519 Q 44.251 22.706 43.601 22.706 A 6.174 6.174 0 0 1 42.59 22.628 Q 42.013 22.532 41.535 22.319 A 3.648 3.648 0 0 1 41.351 22.231 A 3.151 3.151 0 0 1 39.969 20.83 A 3.874 3.874 0 0 1 39.938 20.769 A 4.307 4.307 0 0 1 39.605 19.802 Q 39.451 19.114 39.451 18.256 Z" id="3" vector-effect="non-scaling-stroke"/><path d="M 63.701 10.156 L 63.701 0.681 Q 63.701 0.377 63.942 0.215 A 0.697 0.697 0 0 1 63.976 0.194 A 0.978 0.978 0 0 1 64.206 0.098 Q 64.432 0.033 64.755 0.031 A 3.344 3.344 0 0 1 64.776 0.031 A 2.967 2.967 0 0 1 65.062 0.044 Q 65.349 0.072 65.529 0.161 A 0.717 0.717 0 0 1 65.588 0.194 Q 65.851 0.356 65.851 0.681 L 65.851 19.806 A 2.569 2.569 0 0 0 65.862 20.061 Q 65.897 20.412 66.038 20.581 Q 66.226 20.806 66.576 20.806 Q 66.776 20.806 66.963 20.719 A 1.31 1.31 0 0 0 67.198 20.576 A 1.639 1.639 0 0 0 67.326 20.469 Q 67.501 20.306 67.701 20.056 A 0.454 0.454 0 0 1 67.825 19.979 Q 67.952 19.927 68.101 19.969 A 1.149 1.149 0 0 1 68.353 20.074 A 1.566 1.566 0 0 1 68.551 20.206 A 1.076 1.076 0 0 1 68.716 20.368 Q 68.821 20.499 68.861 20.646 A 0.684 0.684 0 0 1 68.863 20.656 Q 68.926 20.906 68.776 21.106 A 3.001 3.001 0 0 1 68.117 21.931 A 2.874 2.874 0 0 1 68.088 21.956 Q 67.676 22.306 67.176 22.506 Q 66.676 22.706 66.126 22.706 A 3.751 3.751 0 0 1 65.563 22.667 Q 65.049 22.588 64.701 22.356 A 2.035 2.035 0 0 1 64.151 21.826 A 1.911 1.911 0 0 1 63.951 21.456 A 3.056 3.056 0 0 1 63.733 20.496 A 3.602 3.602 0 0 1 63.726 20.256 L 63.726 20.019 L 63.726 19.781 Q 63.24 20.692 62.697 21.283 A 4.582 4.582 0 0 1 62.438 21.544 Q 61.751 22.181 61.001 22.444 A 4.647 4.647 0 0 1 59.981 22.68 A 4.092 4.092 0 0 1 59.526 22.706 A 4.729 4.729 0 0 1 58.156 22.514 A 4.033 4.033 0 0 1 57.076 22.006 Q 56.026 21.306 55.426 19.931 A 6.568 6.568 0 0 1 55.016 18.597 Q 54.826 17.65 54.826 16.481 A 11.888 11.888 0 0 1 54.918 14.966 A 9.774 9.774 0 0 1 55.076 14.069 A 8.896 8.896 0 0 1 55.447 12.827 A 7.323 7.323 0 0 1 55.788 12.069 Q 56.251 11.181 56.938 10.569 Q 57.626 9.956 58.526 9.631 Q 59.426 9.306 60.501 9.306 Q 61.276 9.306 62.113 9.519 Q 62.951 9.731 63.701 10.156 Z M 63.701 16.756 L 63.701 12.156 Q 62.926 11.656 62.176 11.469 Q 61.426 11.281 60.676 11.281 Q 60.001 11.281 59.438 11.481 Q 58.876 11.681 58.426 12.094 A 3.399 3.399 0 0 0 57.85 12.789 A 4.138 4.138 0 0 0 57.663 13.119 A 4.857 4.857 0 0 0 57.363 13.86 A 6.452 6.452 0 0 0 57.188 14.544 A 7.951 7.951 0 0 0 57.069 15.386 Q 57.031 15.805 57.026 16.272 A 13.28 13.28 0 0 0 57.026 16.406 A 9.215 9.215 0 0 0 57.089 17.518 Q 57.159 18.092 57.306 18.59 A 5.606 5.606 0 0 0 57.326 18.656 A 3.939 3.939 0 0 0 57.623 19.376 Q 57.879 19.849 58.251 20.169 A 2.198 2.198 0 0 0 59.384 20.675 A 2.984 2.984 0 0 0 59.826 20.706 Q 60.626 20.706 61.326 20.306 A 3.416 3.416 0 0 0 61.963 19.829 Q 62.225 19.584 62.474 19.265 A 6.207 6.207 0 0 0 62.638 19.044 A 6.046 6.046 0 0 0 63.109 18.25 Q 63.312 17.845 63.492 17.363 A 12.333 12.333 0 0 0 63.701 16.756 Z" id="4" vector-effect="non-scaling-stroke"/><path d="M 71.376 20.081 L 71.376 10.056 A 0.634 0.634 0 0 1 71.409 9.843 Q 71.47 9.673 71.638 9.569 A 0.889 0.889 0 0 1 71.85 9.476 Q 72.081 9.406 72.426 9.406 A 2.998 2.998 0 0 1 72.713 9.419 Q 73.053 9.452 73.251 9.569 Q 73.526 9.731 73.526 10.056 L 73.526 19.806 Q 73.526 20.266 73.666 20.499 A 0.55 0.55 0 0 0 73.726 20.581 A 0.659 0.659 0 0 0 74.201 20.805 A 0.898 0.898 0 0 0 74.251 20.806 Q 74.496 20.806 74.669 20.71 A 0.661 0.661 0 0 0 74.676 20.706 A 1.503 1.503 0 0 0 74.9 20.548 A 1.843 1.843 0 0 0 75.013 20.444 A 7.26 7.26 0 0 0 75.162 20.289 Q 75.263 20.183 75.376 20.056 A 0.289 0.289 0 0 1 75.571 19.953 Q 75.654 19.943 75.758 19.967 A 0.822 0.822 0 0 1 75.763 19.969 A 0.957 0.957 0 0 1 76.041 20.08 A 0.849 0.849 0 0 1 76.201 20.206 Q 76.451 20.406 76.501 20.656 A 0.725 0.725 0 0 1 76.514 20.765 Q 76.523 20.951 76.426 21.106 A 3.001 3.001 0 0 1 75.767 21.931 A 2.874 2.874 0 0 1 75.738 21.956 Q 75.326 22.306 74.838 22.506 Q 74.351 22.706 73.826 22.706 Q 73.003 22.706 72.467 22.425 A 1.714 1.714 0 0 1 71.963 22.031 A 2.178 2.178 0 0 1 71.541 21.266 Q 71.376 20.758 71.376 20.081 Z M 71.376 5.169 A 1.041 1.041 0 0 0 71.603 5.358 Q 71.925 5.556 72.426 5.556 A 2.378 2.378 0 0 0 72.543 5.553 Q 72.769 5.542 72.956 5.487 A 1.157 1.157 0 0 0 73.488 5.169 A 1.023 1.023 0 0 0 73.636 4.965 Q 73.815 4.642 73.806 4.144 A 2.901 2.901 0 0 0 73.801 4.006 Q 73.801 3.544 73.688 3.215 A 1.26 1.26 0 0 0 73.463 2.806 Q 73.126 2.406 72.426 2.406 Q 72.141 2.406 71.915 2.472 A 1.11 1.11 0 0 0 71.376 2.806 Q 71.026 3.206 71.026 4.006 Q 71.026 4.781 71.376 5.169 Z" id="5" vector-effect="non-scaling-stroke"/><path d="M 86.901 10.206 L 86.901 10.106 A 0.703 0.703 0 0 1 86.935 9.882 A 0.561 0.561 0 0 1 87.176 9.581 A 0.925 0.925 0 0 1 87.403 9.48 Q 87.644 9.406 88.001 9.406 A 2.967 2.967 0 0 1 88.287 9.419 Q 88.574 9.447 88.754 9.536 A 0.717 0.717 0 0 1 88.813 9.569 A 0.531 0.531 0 0 1 89.066 9.956 A 0.807 0.807 0 0 1 89.076 10.081 L 89.076 19.806 Q 89.076 20.156 89.163 20.381 A 0.828 0.828 0 0 0 89.239 20.532 Q 89.3 20.626 89.381 20.685 A 0.501 0.501 0 0 0 89.413 20.706 Q 89.576 20.806 89.776 20.806 Q 89.966 20.806 90.106 20.762 A 0.677 0.677 0 0 0 90.188 20.731 Q 90.337 20.662 90.487 20.519 A 1.652 1.652 0 0 0 90.513 20.494 Q 90.625 20.382 90.766 20.229 A 16.07 16.07 0 0 0 90.901 20.081 Q 91.051 19.906 91.276 19.944 Q 91.501 19.981 91.751 20.156 A 1.219 1.219 0 0 1 91.917 20.338 Q 92.015 20.47 92.055 20.614 A 0.764 0.764 0 0 1 92.063 20.644 A 0.755 0.755 0 0 1 92.083 20.778 Q 92.084 20.796 92.084 20.814 A 0.643 0.643 0 0 1 92.001 21.131 Q 91.726 21.606 91.313 21.956 Q 90.901 22.306 90.401 22.506 Q 89.901 22.706 89.351 22.706 A 4.054 4.054 0 0 1 88.878 22.68 Q 88.59 22.646 88.351 22.569 Q 87.926 22.431 87.613 22.144 Q 87.301 21.856 87.151 21.444 Q 87.001 21.031 86.926 20.506 Q 86.926 20.41 86.918 20.285 A 6.235 6.235 0 0 0 86.913 20.206 Q 86.901 20.031 86.901 19.831 A 7.75 7.75 0 0 1 86.433 20.63 Q 86.076 21.16 85.676 21.531 A 4.855 4.855 0 0 1 84.963 22.083 A 3.827 3.827 0 0 1 84.263 22.431 Q 83.526 22.706 82.776 22.706 A 4.592 4.592 0 0 1 81.272 22.466 A 4.138 4.138 0 0 1 80.338 22.006 A 4.178 4.178 0 0 1 79.113 20.743 A 5.58 5.58 0 0 1 78.688 19.931 A 6.65 6.65 0 0 1 78.292 18.62 Q 78.162 17.971 78.12 17.216 A 13.357 13.357 0 0 1 78.101 16.481 A 12.506 12.506 0 0 1 78.189 14.966 A 10.243 10.243 0 0 1 78.338 14.069 A 8.128 8.128 0 0 1 78.722 12.781 A 6.784 6.784 0 0 1 79.051 12.069 A 5.817 5.817 0 0 1 79.76 11.022 A 5.053 5.053 0 0 1 80.201 10.569 Q 80.876 9.956 81.751 9.631 A 5.172 5.172 0 0 1 82.985 9.344 A 6.482 6.482 0 0 1 83.701 9.306 A 5.773 5.773 0 0 1 85.12 9.488 A 6.533 6.533 0 0 1 85.326 9.544 Q 86.151 9.781 86.901 10.206 Z M 86.901 16.856 L 86.901 12.056 Q 86.126 11.606 85.413 11.444 Q 84.701 11.281 83.951 11.281 Q 83.276 11.281 82.713 11.481 Q 82.151 11.681 81.701 12.094 A 3.399 3.399 0 0 0 81.125 12.789 A 4.138 4.138 0 0 0 80.938 13.119 A 4.857 4.857 0 0 0 80.638 13.86 A 6.452 6.452 0 0 0 80.463 14.544 A 7.951 7.951 0 0 0 80.344 15.386 Q 80.306 15.805 80.301 16.272 A 13.28 13.28 0 0 0 80.301 16.406 Q 80.301 17.706 80.601 18.681 Q 80.887 19.611 81.468 20.131 A 2.417 2.417 0 0 0 81.526 20.181 A 2.212 2.212 0 0 0 82.619 20.669 A 3.021 3.021 0 0 0 83.101 20.706 A 2.788 2.788 0 0 0 84.532 20.307 A 3.307 3.307 0 0 0 84.576 20.281 Q 85.221 19.889 85.781 19.126 A 6.431 6.431 0 0 0 85.876 18.994 A 6.912 6.912 0 0 0 86.416 18.061 Q 86.646 17.586 86.842 17.029 A 11.876 11.876 0 0 0 86.901 16.856 Z" id="6" vector-effect="non-scaling-stroke"/><path d="M 108.678 22.493 A 9.472 9.472 0 0 0 110.951 22.756 Q 112.276 22.756 113.538 22.294 A 7.515 7.515 0 0 0 114.412 21.908 A 8.719 8.719 0 0 0 115.951 20.881 A 9.847 9.847 0 0 0 116.99 19.881 A 12.505 12.505 0 0 0 118.076 18.481 A 1.174 1.174 0 0 0 118.141 18.372 Q 118.221 18.217 118.221 18.084 A 0.403 0.403 0 0 0 118.201 17.956 A 0.505 0.505 0 0 0 118.16 17.866 Q 118.086 17.736 117.919 17.59 A 2.517 2.517 0 0 0 117.751 17.456 A 1.983 1.983 0 0 0 117.6 17.34 Q 117.491 17.265 117.387 17.217 A 0.879 0.879 0 0 0 117.138 17.144 A 0.571 0.571 0 0 0 117.064 17.139 Q 116.907 17.139 116.769 17.23 A 0.76 0.76 0 0 0 116.626 17.356 Q 116.051 18.006 115.451 18.606 Q 114.851 19.206 114.138 19.656 Q 113.426 20.106 112.638 20.369 Q 111.851 20.631 110.951 20.631 A 7.523 7.523 0 0 1 110.57 20.622 A 6.383 6.383 0 0 1 108.151 20.031 A 5.921 5.921 0 0 1 107.534 19.695 A 6.33 6.33 0 0 1 105.938 18.256 Q 105.001 17.081 104.476 15.369 A 11.555 11.555 0 0 1 104.066 13.411 A 15.799 15.799 0 0 1 103.951 11.456 A 16.759 16.759 0 0 1 103.987 10.338 A 13.403 13.403 0 0 1 104.188 8.731 A 11.693 11.693 0 0 1 104.358 7.971 A 9.805 9.805 0 0 1 104.888 6.444 A 9.569 9.569 0 0 1 105.146 5.909 A 8.105 8.105 0 0 1 105.988 4.606 Q 106.626 3.806 107.438 3.256 Q 108.251 2.706 109.188 2.431 A 6.526 6.526 0 0 1 109.545 2.337 A 7.169 7.169 0 0 1 111.176 2.156 A 8.268 8.268 0 0 1 111.424 2.16 A 7.314 7.314 0 0 1 113.076 2.394 Q 113.976 2.631 114.763 3.081 Q 115.551 3.531 116.176 4.181 A 1.018 1.018 0 0 0 116.227 4.224 Q 116.406 4.365 116.585 4.365 A 0.463 0.463 0 0 0 116.676 4.356 A 0.637 0.637 0 0 0 116.734 4.342 Q 116.965 4.272 117.276 4.006 A 3.478 3.478 0 0 0 117.33 3.955 Q 117.585 3.711 117.676 3.519 A 0.328 0.328 0 0 0 117.706 3.377 Q 117.706 3.254 117.626 3.103 A 1.249 1.249 0 0 0 117.551 2.981 Q 116.726 1.781 115.676 1.156 Q 114.626 0.531 113.476 0.281 Q 112.326 0.031 111.176 0.031 A 10.929 10.929 0 0 0 110.726 0.04 A 9.559 9.559 0 0 0 108.438 0.406 Q 107.151 0.781 106.088 1.519 Q 105.026 2.256 104.188 3.269 A 9.395 9.395 0 0 0 103.983 3.526 A 10.16 10.16 0 0 0 102.776 5.556 A 11.844 11.844 0 0 0 102.505 6.207 A 13.303 13.303 0 0 0 101.901 8.319 A 14.487 14.487 0 0 0 101.769 9.072 A 16.352 16.352 0 0 0 101.601 11.456 A 17.012 17.012 0 0 0 101.679 13.109 A 13.789 13.789 0 0 0 102.263 15.994 Q 102.926 18.056 104.151 19.569 Q 105.376 21.081 107.088 21.919 A 7.921 7.921 0 0 0 108.678 22.493 Z" id="8" vector-effect="non-scaling-stroke"/><path d="M 129.726 22.281 L 121.026 22.281 A 1.024 1.024 0 0 1 120.749 22.246 Q 120.427 22.156 120.301 21.831 Q 120.224 21.634 120.224 21.461 A 0.696 0.696 0 0 1 120.351 21.056 L 126.926 11.781 L 121.301 11.781 A 0.996 0.996 0 0 1 121.085 11.759 Q 120.94 11.727 120.835 11.648 A 0.572 0.572 0 0 1 120.738 11.556 Q 120.573 11.358 120.553 10.91 A 2.892 2.892 0 0 1 120.551 10.781 Q 120.551 10.206 120.738 9.994 A 0.594 0.594 0 0 1 121.022 9.817 Q 121.145 9.781 121.301 9.781 L 129.526 9.781 A 0.844 0.844 0 0 1 129.73 9.804 A 0.563 0.563 0 0 1 130.026 9.981 A 0.814 0.814 0 0 1 130.218 10.407 A 1.018 1.018 0 0 1 130.226 10.469 Q 130.251 10.756 130.076 11.006 L 123.526 20.281 L 129.726 20.281 A 0.933 0.933 0 0 1 129.938 20.304 Q 130.155 20.354 130.276 20.519 A 0.688 0.688 0 0 1 130.368 20.7 Q 130.451 20.936 130.451 21.331 A 2.503 2.503 0 0 1 130.44 21.574 Q 130.415 21.827 130.334 21.98 A 0.526 0.526 0 0 1 130.276 22.069 Q 130.122 22.255 129.815 22.278 A 1.2 1.2 0 0 1 129.726 22.281 Z" id="9" vector-effect="non-scaling-stroke"/><path d="M 141.701 10.206 L 141.701 10.106 A 0.703 0.703 0 0 1 141.735 9.882 A 0.561 0.561 0 0 1 141.976 9.581 A 0.925 0.925 0 0 1 142.203 9.48 Q 142.444 9.406 142.801 9.406 A 2.967 2.967 0 0 1 143.087 9.419 Q 143.374 9.447 143.554 9.536 A 0.717 0.717 0 0 1 143.613 9.569 A 0.531 0.531 0 0 1 143.866 9.956 A 0.807 0.807 0 0 1 143.876 10.081 L 143.876 19.806 Q 143.876 20.156 143.963 20.381 A 0.828 0.828 0 0 0 144.039 20.532 Q 144.1 20.626 144.181 20.685 A 0.501 0.501 0 0 0 144.213 20.706 Q 144.376 20.806 144.576 20.806 Q 144.766 20.806 144.906 20.762 A 0.677 0.677 0 0 0 144.988 20.731 Q 145.137 20.662 145.287 20.519 A 1.652 1.652 0 0 0 145.313 20.494 Q 145.425 20.382 145.566 20.229 A 16.07 16.07 0 0 0 145.701 20.081 Q 145.851 19.906 146.076 19.944 Q 146.301 19.981 146.551 20.156 A 1.219 1.219 0 0 1 146.717 20.338 Q 146.815 20.47 146.855 20.614 A 0.764 0.764 0 0 1 146.863 20.644 A 0.755 0.755 0 0 1 146.883 20.778 Q 146.884 20.796 146.884 20.814 A 0.643 0.643 0 0 1 146.801 21.131 Q 146.526 21.606 146.113 21.956 Q 145.701 22.306 145.201 22.506 Q 144.701 22.706 144.151 22.706 A 4.054 4.054 0 0 1 143.678 22.68 Q 143.39 22.646 143.151 22.569 Q 142.726 22.431 142.413 22.144 Q 142.101 21.856 141.951 21.444 Q 141.801 21.031 141.726 20.506 Q 141.726 20.41 141.718 20.285 A 6.235 6.235 0 0 0 141.713 20.206 Q 141.701 20.031 141.701 19.831 A 7.75 7.75 0 0 1 141.233 20.63 Q 140.876 21.16 140.476 21.531 A 4.855 4.855 0 0 1 139.763 22.083 A 3.827 3.827 0 0 1 139.063 22.431 Q 138.326 22.706 137.576 22.706 A 4.592 4.592 0 0 1 136.072 22.466 A 4.138 4.138 0 0 1 135.138 22.006 A 4.178 4.178 0 0 1 133.913 20.743 A 5.58 5.58 0 0 1 133.488 19.931 A 6.65 6.65 0 0 1 133.092 18.62 Q 132.962 17.971 132.92 17.216 A 13.357 13.357 0 0 1 132.901 16.481 A 12.506 12.506 0 0 1 132.989 14.966 A 10.243 10.243 0 0 1 133.138 14.069 A 8.128 8.128 0 0 1 133.522 12.781 A 6.784 6.784 0 0 1 133.851 12.069 A 5.817 5.817 0 0 1 134.56 11.022 A 5.053 5.053 0 0 1 135.001 10.569 Q 135.676 9.956 136.551 9.631 A 5.172 5.172 0 0 1 137.785 9.344 A 6.482 6.482 0 0 1 138.501 9.306 A 5.773 5.773 0 0 1 139.92 9.488 A 6.533 6.533 0 0 1 140.126 9.544 Q 140.951 9.781 141.701 10.206 Z M 141.701 16.856 L 141.701 12.056 Q 140.926 11.606 140.213 11.444 Q 139.501 11.281 138.751 11.281 Q 138.076 11.281 137.513 11.481 Q 136.951 11.681 136.501 12.094 A 3.399 3.399 0 0 0 135.925 12.789 A 4.138 4.138 0 0 0 135.738 13.119 A 4.857 4.857 0 0 0 135.438 13.86 A 6.452 6.452 0 0 0 135.263 14.544 A 7.951 7.951 0 0 0 135.144 15.386 Q 135.106 15.805 135.101 16.272 A 13.28 13.28 0 0 0 135.101 16.406 Q 135.101 17.706 135.401 18.681 Q 135.687 19.611 136.268 20.131 A 2.417 2.417 0 0 0 136.326 20.181 A 2.212 2.212 0 0 0 137.419 20.669 A 3.021 3.021 0 0 0 137.901 20.706 A 2.788 2.788 0 0 0 139.332 20.307 A 3.307 3.307 0 0 0 139.376 20.281 Q 140.021 19.889 140.581 19.126 A 6.431 6.431 0 0 0 140.676 18.994 A 6.912 6.912 0 0 0 141.216 18.061 Q 141.446 17.586 141.642 17.029 A 11.876 11.876 0 0 0 141.701 16.856 Z" id="10" vector-effect="non-scaling-stroke"/><path d="M 149.226 22.006 L 149.226 10.056 A 0.634 0.634 0 0 1 149.259 9.843 Q 149.32 9.673 149.488 9.569 A 0.889 0.889 0 0 1 149.7 9.476 Q 149.931 9.406 150.276 9.406 A 2.998 2.998 0 0 1 150.563 9.419 Q 150.903 9.452 151.101 9.569 Q 151.376 9.731 151.376 10.056 L 151.376 12.306 A 8.238 8.238 0 0 1 151.849 11.522 A 6.639 6.639 0 0 1 152.251 10.994 A 5.981 5.981 0 0 1 152.832 10.392 A 4.911 4.911 0 0 1 153.251 10.056 A 4.561 4.561 0 0 1 153.895 9.669 A 3.789 3.789 0 0 1 154.313 9.494 Q 154.851 9.306 155.401 9.306 Q 156.001 9.306 156.563 9.494 A 3.813 3.813 0 0 1 156.887 9.617 Q 157.044 9.686 157.169 9.762 A 1.483 1.483 0 0 1 157.401 9.931 Q 157.618 10.105 157.675 10.316 A 0.583 0.583 0 0 1 157.688 10.381 Q 157.726 10.631 157.476 11.081 Q 157.34 11.335 157.17 11.469 A 0.708 0.708 0 0 1 157.001 11.569 A 0.725 0.725 0 0 1 156.723 11.622 Q 156.631 11.622 156.533 11.601 A 1.215 1.215 0 0 1 156.376 11.556 Q 156.076 11.456 155.776 11.381 Q 155.505 11.314 155.154 11.307 A 4.108 4.108 0 0 0 155.076 11.306 A 2.168 2.168 0 0 0 154.348 11.436 A 2.757 2.757 0 0 0 154.013 11.581 A 3.116 3.116 0 0 0 153.426 11.976 A 4.225 4.225 0 0 0 152.988 12.406 Q 152.504 12.952 152.095 13.744 A 9.07 9.07 0 0 0 152.088 13.756 A 9.645 9.645 0 0 0 151.627 14.805 A 12.069 12.069 0 0 0 151.376 15.556 L 151.376 22.006 Q 151.376 22.31 151.135 22.472 A 0.697 0.697 0 0 1 151.101 22.494 A 0.955 0.955 0 0 1 150.879 22.586 Q 150.637 22.656 150.276 22.656 A 2.733 2.733 0 0 1 150.001 22.643 Q 149.712 22.614 149.531 22.518 A 0.728 0.728 0 0 1 149.488 22.494 Q 149.226 22.331 149.226 22.006 Z" id="11" vector-effect="non-scaling-stroke"/><path d="M 169.201 20.081 L 169.201 13.931 A 5.074 5.074 0 0 0 169.164 13.307 Q 169.125 12.994 169.045 12.727 A 2.71 2.71 0 0 0 168.963 12.494 Q 168.726 11.906 168.226 11.606 A 1.883 1.883 0 0 0 167.741 11.406 Q 167.367 11.306 166.876 11.306 Q 166.251 11.306 165.651 11.569 A 3.682 3.682 0 0 0 164.902 12.013 A 4.664 4.664 0 0 0 164.501 12.356 A 4.705 4.705 0 0 0 163.948 12.993 A 6.496 6.496 0 0 0 163.501 13.706 Q 163.065 14.505 162.746 15.586 A 13.358 13.358 0 0 0 162.726 15.656 L 162.726 22.006 Q 162.726 22.31 162.485 22.472 A 0.697 0.697 0 0 1 162.451 22.494 A 0.955 0.955 0 0 1 162.229 22.586 Q 161.987 22.656 161.626 22.656 A 2.733 2.733 0 0 1 161.351 22.643 Q 161.062 22.614 160.881 22.518 A 0.728 0.728 0 0 1 160.838 22.494 Q 160.576 22.331 160.576 22.006 L 160.576 10.056 A 0.634 0.634 0 0 1 160.609 9.843 Q 160.67 9.673 160.838 9.569 A 0.889 0.889 0 0 1 161.05 9.476 Q 161.281 9.406 161.626 9.406 A 2.998 2.998 0 0 1 161.913 9.419 Q 162.253 9.452 162.451 9.569 Q 162.726 9.731 162.726 10.056 L 162.726 12.331 A 8.021 8.021 0 0 1 163.26 11.462 A 6.709 6.709 0 0 1 163.613 11.006 A 4.921 4.921 0 0 1 164.418 10.243 A 4.431 4.431 0 0 1 164.688 10.056 A 5.047 5.047 0 0 1 165.583 9.599 A 4.488 4.488 0 0 1 165.888 9.494 Q 166.501 9.306 167.176 9.306 A 5.838 5.838 0 0 1 168.295 9.409 A 4.491 4.491 0 0 1 169.338 9.744 A 3.21 3.21 0 0 1 170.76 11.051 A 3.947 3.947 0 0 1 170.813 11.144 A 3.764 3.764 0 0 1 171.161 12.031 Q 171.274 12.461 171.319 12.971 A 8.239 8.239 0 0 1 171.351 13.706 L 171.351 19.806 Q 171.351 20.156 171.438 20.381 A 0.828 0.828 0 0 0 171.514 20.532 Q 171.575 20.626 171.656 20.685 A 0.501 0.501 0 0 0 171.688 20.706 A 0.665 0.665 0 0 0 171.928 20.794 A 0.884 0.884 0 0 0 172.076 20.806 A 0.988 0.988 0 0 0 172.294 20.783 A 0.798 0.798 0 0 0 172.476 20.719 Q 172.64 20.637 172.804 20.478 A 1.934 1.934 0 0 0 172.826 20.456 L 173.201 20.081 A 0.47 0.47 0 0 1 173.315 19.996 Q 173.435 19.933 173.578 19.961 A 0.535 0.535 0 0 1 173.613 19.969 A 1.192 1.192 0 0 1 173.919 20.099 A 1.519 1.519 0 0 1 174.076 20.206 Q 174.301 20.431 174.351 20.669 Q 174.39 20.856 174.305 21.036 A 0.755 0.755 0 0 1 174.251 21.131 A 3.001 3.001 0 0 1 173.592 21.956 A 2.874 2.874 0 0 1 173.563 21.981 Q 173.151 22.331 172.663 22.519 Q 172.176 22.706 171.651 22.706 Q 171.001 22.706 170.538 22.531 A 2.13 2.13 0 0 1 170.069 22.287 A 1.806 1.806 0 0 1 169.776 22.031 A 1.8 1.8 0 0 1 169.453 21.533 A 2.347 2.347 0 0 1 169.338 21.206 A 3.747 3.747 0 0 1 169.228 20.613 A 4.977 4.977 0 0 1 169.201 20.081 Z" id="12" vector-effect="non-scaling-stroke"/><path d="M 176.726 18.256 L 176.726 10.056 A 0.634 0.634 0 0 1 176.759 9.843 Q 176.82 9.673 176.988 9.569 A 0.889 0.889 0 0 1 177.2 9.476 Q 177.431 9.406 177.776 9.406 A 2.998 2.998 0 0 1 178.063 9.419 Q 178.403 9.452 178.601 9.569 Q 178.876 9.731 178.876 10.056 L 178.876 18.206 Q 178.876 18.882 179.034 19.384 A 2.51 2.51 0 0 0 179.126 19.631 A 1.922 1.922 0 0 0 179.462 20.161 A 1.696 1.696 0 0 0 179.876 20.494 A 2.005 2.005 0 0 0 180.405 20.7 Q 180.645 20.758 180.925 20.775 A 3.859 3.859 0 0 0 181.151 20.781 Q 181.901 20.781 182.538 20.456 A 3.75 3.75 0 0 0 183.517 19.729 A 4.399 4.399 0 0 0 183.688 19.544 Q 184.201 18.956 184.588 18.131 Q 184.976 17.306 185.226 16.356 L 185.226 10.056 A 0.634 0.634 0 0 1 185.259 9.843 Q 185.32 9.673 185.488 9.569 A 0.867 0.867 0 0 1 185.691 9.479 Q 185.931 9.406 186.301 9.406 A 2.731 2.731 0 0 1 186.59 9.42 Q 186.888 9.452 187.076 9.555 A 0.785 0.785 0 0 1 187.101 9.569 Q 187.376 9.731 187.376 10.056 L 187.376 19.806 Q 187.376 20.181 187.463 20.419 A 0.804 0.804 0 0 0 187.539 20.574 Q 187.615 20.693 187.726 20.756 A 0.761 0.761 0 0 0 188.03 20.851 A 0.944 0.944 0 0 0 188.126 20.856 A 0.809 0.809 0 0 0 188.495 20.765 A 0.949 0.949 0 0 0 188.513 20.756 Q 188.701 20.656 188.888 20.469 Q 189.076 20.281 189.251 20.081 A 0.516 0.516 0 0 1 189.385 19.983 Q 189.511 19.92 189.663 19.944 A 0.624 0.624 0 0 1 189.889 20.029 Q 190.009 20.102 190.126 20.231 Q 190.301 20.406 190.376 20.644 A 0.526 0.526 0 0 1 190.4 20.779 Q 190.406 20.899 190.351 21.017 A 0.669 0.669 0 0 1 190.301 21.106 Q 190.026 21.581 189.626 21.944 Q 189.226 22.306 188.738 22.519 Q 188.251 22.731 187.701 22.731 Q 187.101 22.731 186.663 22.569 A 2.011 2.011 0 0 1 186.116 22.266 A 1.839 1.839 0 0 1 185.926 22.094 A 2.114 2.114 0 0 1 185.506 21.451 A 2.459 2.459 0 0 1 185.463 21.344 A 3.019 3.019 0 0 1 185.303 20.685 A 3.653 3.653 0 0 1 185.276 20.381 L 185.251 19.681 A 6.966 6.966 0 0 1 184.696 20.61 A 5.96 5.96 0 0 1 184.388 21.006 Q 183.901 21.581 183.338 21.956 Q 182.776 22.331 182.151 22.519 Q 181.526 22.706 180.876 22.706 A 6.174 6.174 0 0 1 179.865 22.628 Q 179.288 22.532 178.81 22.319 A 3.648 3.648 0 0 1 178.626 22.231 A 3.151 3.151 0 0 1 177.244 20.83 A 3.874 3.874 0 0 1 177.213 20.769 A 4.307 4.307 0 0 1 176.88 19.802 Q 176.726 19.114 176.726 18.256 Z" id="13" vector-effect="non-scaling-stroke"/><path d="M 196.13 22.544 A 6.359 6.359 0 0 0 197.801 22.756 Q 198.701 22.756 199.601 22.469 A 5.403 5.403 0 0 0 200.212 22.231 A 6.237 6.237 0 0 0 201.338 21.556 A 5.893 5.893 0 0 0 202.046 20.931 A 7.312 7.312 0 0 0 202.851 19.931 Q 203.006 19.706 203.006 19.511 A 0.467 0.467 0 0 0 202.976 19.344 Q 202.906 19.162 202.718 18.975 A 2.206 2.206 0 0 0 202.526 18.806 A 2.049 2.049 0 0 0 202.364 18.691 Q 202.105 18.525 201.876 18.506 A 0.554 0.554 0 0 0 201.83 18.504 Q 201.554 18.504 201.301 18.781 Q 200.801 19.356 200.326 19.794 Q 199.851 20.231 199.263 20.494 A 2.535 2.535 0 0 1 199.129 20.549 Q 198.833 20.661 198.482 20.713 A 4.361 4.361 0 0 1 197.851 20.756 Q 196.726 20.756 195.938 20.194 A 3.235 3.235 0 0 1 195.204 19.462 A 4.102 4.102 0 0 1 194.726 18.594 Q 194.301 17.556 194.301 16.106 A 8.435 8.435 0 0 1 194.352 15.155 A 6.321 6.321 0 0 1 194.551 14.131 Q 194.801 13.256 195.263 12.619 Q 195.726 11.981 196.413 11.644 A 3.208 3.208 0 0 1 196.856 11.466 A 3.512 3.512 0 0 1 197.926 11.306 Q 198.467 11.306 198.907 11.417 A 2.547 2.547 0 0 1 199.676 11.744 A 11.669 11.669 0 0 1 200.055 12.001 A 13.495 13.495 0 0 1 201.026 12.756 A 1.162 1.162 0 0 0 201.085 12.802 Q 201.285 12.948 201.48 12.948 A 0.526 0.526 0 0 0 201.613 12.931 Q 201.811 12.879 202.026 12.71 A 2.278 2.278 0 0 0 202.226 12.531 A 2.081 2.081 0 0 0 202.335 12.402 Q 202.418 12.296 202.473 12.193 A 0.954 0.954 0 0 0 202.563 11.956 A 0.47 0.47 0 0 0 202.575 11.852 Q 202.575 11.616 202.351 11.331 A 6.321 6.321 0 0 0 201.78 10.734 A 4.956 4.956 0 0 0 200.263 9.769 A 7.094 7.094 0 0 0 199.439 9.496 A 5.566 5.566 0 0 0 198.026 9.306 A 6.45 6.45 0 0 0 197.448 9.331 A 5.301 5.301 0 0 0 195.626 9.819 Q 194.551 10.331 193.763 11.256 A 6.21 6.21 0 0 0 193.263 11.932 A 7.093 7.093 0 0 0 192.538 13.444 A 7.589 7.589 0 0 0 192.247 14.556 A 9.241 9.241 0 0 0 192.101 16.231 A 11.659 11.659 0 0 0 192.107 16.619 Q 192.169 18.468 192.826 19.794 A 6.184 6.184 0 0 0 193.044 20.196 A 4.984 4.984 0 0 0 194.838 22.006 A 5.323 5.323 0 0 0 196.13 22.544 Z" id="14" vector-effect="non-scaling-stroke"/><path d="M 214.676 20.081 L 214.676 13.931 A 4.82 4.82 0 0 0 214.624 13.205 Q 214.564 12.812 214.434 12.495 A 2.187 2.187 0 0 0 214.151 11.994 A 1.582 1.582 0 0 0 213.438 11.478 Q 213.164 11.373 212.82 11.332 A 3.979 3.979 0 0 0 212.351 11.306 A 2.9 2.9 0 0 0 211.357 11.486 A 3.427 3.427 0 0 0 211.151 11.569 A 3.682 3.682 0 0 0 210.402 12.013 A 4.664 4.664 0 0 0 210.001 12.356 A 4.818 4.818 0 0 0 209.444 12.995 A 6.535 6.535 0 0 0 209.001 13.694 A 8.46 8.46 0 0 0 208.558 14.631 A 11.266 11.266 0 0 0 208.226 15.581 L 208.226 22.006 Q 208.226 22.31 207.985 22.472 A 0.697 0.697 0 0 1 207.951 22.494 A 0.978 0.978 0 0 1 207.721 22.589 Q 207.494 22.654 207.171 22.656 A 3.344 3.344 0 0 1 207.151 22.656 A 2.967 2.967 0 0 1 206.864 22.643 Q 206.577 22.615 206.397 22.526 A 0.717 0.717 0 0 1 206.338 22.494 Q 206.076 22.331 206.076 22.006 L 206.076 0.681 A 0.634 0.634 0 0 1 206.109 0.468 Q 206.17 0.298 206.338 0.194 A 0.867 0.867 0 0 1 206.541 0.104 Q 206.781 0.031 207.151 0.031 A 2.731 2.731 0 0 1 207.44 0.045 Q 207.738 0.077 207.926 0.18 A 0.785 0.785 0 0 1 207.951 0.194 Q 208.226 0.356 208.226 0.681 L 208.226 12.331 Q 208.626 11.531 209.126 10.981 A 6.368 6.368 0 0 1 209.911 10.247 A 5.646 5.646 0 0 1 210.188 10.044 Q 210.751 9.656 211.376 9.481 Q 212.001 9.306 212.651 9.306 A 5.838 5.838 0 0 1 213.77 9.409 A 4.491 4.491 0 0 1 214.813 9.744 A 3.21 3.21 0 0 1 216.235 11.051 A 3.947 3.947 0 0 1 216.288 11.144 A 3.764 3.764 0 0 1 216.636 12.031 Q 216.749 12.461 216.794 12.971 A 8.239 8.239 0 0 1 216.826 13.706 L 216.826 19.806 Q 216.826 20.156 216.913 20.381 A 0.754 0.754 0 0 0 216.998 20.542 A 0.549 0.549 0 0 0 217.176 20.706 A 0.761 0.761 0 0 0 217.48 20.801 A 0.944 0.944 0 0 0 217.576 20.806 A 1.175 1.175 0 0 0 217.75 20.794 Q 217.842 20.78 217.918 20.751 A 0.614 0.614 0 0 0 217.988 20.719 A 1.046 1.046 0 0 0 218.14 20.617 Q 218.227 20.549 218.313 20.456 Q 218.476 20.281 218.626 20.081 A 0.62 0.62 0 0 1 218.747 19.997 Q 218.846 19.945 218.952 19.945 A 0.454 0.454 0 0 1 219.051 19.956 Q 219.254 20.001 219.457 20.168 A 1.541 1.541 0 0 1 219.501 20.206 A 1.376 1.376 0 0 1 219.65 20.362 Q 219.772 20.513 219.813 20.669 Q 219.876 20.906 219.701 21.156 Q 219.426 21.631 219.026 21.981 Q 218.626 22.331 218.138 22.519 Q 217.651 22.706 217.126 22.706 A 3.77 3.77 0 0 1 216.61 22.673 Q 216.298 22.629 216.038 22.531 A 2.13 2.13 0 0 1 215.569 22.287 A 1.806 1.806 0 0 1 215.276 22.031 A 1.887 1.887 0 0 1 214.959 21.556 A 2.472 2.472 0 0 1 214.826 21.206 A 3.475 3.475 0 0 1 214.704 20.604 A 4.577 4.577 0 0 1 214.676 20.081 Z" id="15" vector-effect="non-scaling-stroke"/></g></svg>